<svg xmlns="http://www.w3.org/2000/svg" width="71.59" height="35" viewBox="0 0 71.59 35"><rect class="svg__rect" x="0" y="0" width="0" height="35" fill="#31C4F3"/><rect class="svg__rect" x="0" y="0" width="71.59" height="35" fill="#389AD5"/><path class="svg__text" d="" fill="#FFFFFF"/><path class="svg__text" d="M13.11 20.93L13.11 20.93L14.40 19.40Q15.07 20.27 15.85 20.27L15.85 20.27Q15.85 20.27 15.86 20.27L15.86 20.27Q16.37 20.27 16.64 19.96Q16.91 19.65 16.91 19.05L16.91 19.05L16.91 15.44L14.01 15.44L14.01 13.60L19.27 13.60L19.27 18.91Q19.27 20.54 18.44 21.36Q17.62 22.17 16.03 22.17L16.03 22.17Q15.10 22.17 14.35 21.85Q13.59 21.53 13.11 20.93ZM25.77 22L23.35 22L27.06 13.60L29.40 13.60L33.11 22L30.65 22L29.98 20.37L26.43 20.37L25.77 22ZM28.21 15.93L27.13 18.61L29.29 18.61L28.21 15.93ZM39.85 22L36.26 13.60L38.83 13.60L41.11 19.07L43.44 13.60L45.79 13.60L42.19 22L39.85 22ZM51.36 22L48.93 22L52.64 13.60L54.99 13.60L58.70 22L56.23 22L55.57 20.37L52.02 20.37L51.36 22ZM53.80 15.93L52.71 18.61L54.88 18.61L53.80 15.93Z" fill="#FFFFFF" x="39"/></svg>