<svg xmlns="http://www.w3.org/2000/svg" width="142.22" height="35" viewBox="0 0 142.22 35"><rect class="svg__rect" x="0" y="0" width="0" height="35" fill="#31C4F3"/><rect class="svg__rect" x="0" y="0" width="142.22" height="35" fill="#2D0505"/><path class="svg__text" d="" fill="#FFFFFF"/><path class="svg__text" d="M16.57 22L14.19 22L14.19 13.60L18.03 13.60Q19.17 13.60 20.01 13.98Q20.85 14.35 21.31 15.06Q21.76 15.76 21.76 16.71L21.76 16.71Q21.76 17.66 21.31 18.35Q20.85 19.05 20.01 19.42Q19.17 19.80 18.03 19.80L18.03 19.80L16.57 19.80L16.57 22ZM16.57 15.47L16.57 17.93L17.89 17.93Q18.62 17.93 18.99 17.61Q19.36 17.29 19.36 16.71L19.36 16.71Q19.36 16.12 18.99 15.80Q18.62 15.47 17.89 15.47L17.89 15.47L16.57 15.47ZM26.09 17.80L26.09 17.80Q26.09 16.55 26.69 15.55Q27.30 14.56 28.36 14.00Q29.42 13.43 30.75 13.43L30.75 13.43Q32.08 13.43 33.15 14.00Q34.21 14.56 34.82 15.55Q35.42 16.55 35.42 17.80L35.42 17.80Q35.42 19.05 34.82 20.04Q34.21 21.04 33.15 21.60Q32.09 22.17 30.75 22.17L30.75 22.17Q29.42 22.17 28.36 21.60Q27.30 21.04 26.69 20.04Q26.09 19.05 26.09 17.80ZM28.48 17.80L28.48 17.80Q28.48 18.51 28.79 19.05Q29.09 19.60 29.60 19.90Q30.12 20.20 30.75 20.20L30.75 20.20Q31.39 20.20 31.91 19.90Q32.42 19.60 32.72 19.05Q33.02 18.51 33.02 17.80L33.02 17.80Q33.02 17.09 32.72 16.54Q32.42 16 31.91 15.70Q31.39 15.40 30.75 15.40L30.75 15.40Q30.11 15.40 29.60 15.70Q29.09 16 28.79 16.54Q28.48 17.09 28.48 17.80ZM39.56 21.24L39.56 21.24L40.34 19.49Q40.91 19.86 41.65 20.09Q42.39 20.32 43.12 20.32L43.12 20.32Q44.48 20.32 44.49 19.64L44.49 19.64Q44.49 19.28 44.10 19.11Q43.71 18.93 42.84 18.74L42.84 18.74Q41.89 18.53 41.26 18.30Q40.62 18.06 40.17 17.55Q39.71 17.03 39.71 16.16L39.71 16.16Q39.71 15.39 40.13 14.77Q40.55 14.15 41.38 13.79Q42.22 13.43 43.43 13.43L43.43 13.43Q44.25 13.43 45.06 13.62Q45.86 13.80 46.48 14.17L46.48 14.17L45.75 15.93Q44.55 15.28 43.41 15.28L43.41 15.28Q42.71 15.28 42.38 15.49Q42.06 15.70 42.06 16.04L42.06 16.04Q42.06 16.37 42.44 16.54Q42.83 16.71 43.68 16.89L43.68 16.89Q44.64 17.10 45.27 17.33Q45.90 17.56 46.36 18.07Q46.82 18.58 46.82 19.46L46.82 19.46Q46.82 20.21 46.41 20.83Q45.99 21.44 45.15 21.80Q44.31 22.17 43.10 22.17L43.10 22.17Q42.08 22.17 41.12 21.92Q40.16 21.67 39.56 21.24ZM53.19 15.48L50.61 15.48L50.61 13.60L58.13 13.60L58.13 15.48L55.57 15.48L55.57 22L53.19 22L53.19 15.48ZM62.08 17.80L62.08 17.80Q62.08 16.54 62.67 15.54Q63.27 14.55 64.34 13.99Q65.41 13.43 66.75 13.43L66.75 13.43Q67.93 13.43 68.87 13.83Q69.81 14.22 70.43 14.97L70.43 14.97L68.91 16.33Q68.07 15.40 66.89 15.40L66.89 15.40Q66.88 15.40 66.88 15.40L66.88 15.40Q65.80 15.40 65.14 16.06Q64.47 16.71 64.47 17.80L64.47 17.80Q64.47 18.50 64.77 19.04Q65.08 19.59 65.62 19.89Q66.15 20.20 66.85 20.20L66.85 20.20Q67.54 20.20 68.14 19.93L68.14 19.93L68.14 17.62L70.23 17.62L70.23 21.10Q69.51 21.61 68.58 21.89Q67.64 22.17 66.71 22.17L66.71 22.17Q65.39 22.17 64.33 21.61Q63.27 21.05 62.67 20.05Q62.08 19.06 62.08 17.80ZM77.60 22L75.22 22L75.22 13.60L79.07 13.60Q80.21 13.60 81.05 13.98Q81.89 14.35 82.34 15.06Q82.80 15.76 82.80 16.71L82.80 16.71Q82.80 17.62 82.37 18.30Q81.95 18.98 81.15 19.36L81.15 19.36L82.97 22L80.42 22L78.90 19.77L77.60 19.77L77.60 22ZM77.60 15.47L77.60 17.93L78.92 17.93Q79.65 17.93 80.03 17.61Q80.40 17.29 80.40 16.71L80.40 16.71Q80.40 16.12 80.03 15.79Q79.65 15.47 78.92 15.47L78.92 15.47L77.60 15.47ZM94.33 22L87.59 22L87.59 13.60L94.18 13.60L94.18 15.44L89.94 15.44L89.94 16.85L93.68 16.85L93.68 18.63L89.94 18.63L89.94 20.17L94.33 20.17L94.33 22ZM98.55 21.24L98.55 21.24L99.33 19.49Q99.89 19.86 100.64 20.09Q101.38 20.32 102.10 20.32L102.10 20.32Q103.47 20.32 103.47 19.64L103.47 19.64Q103.47 19.28 103.08 19.11Q102.69 18.93 101.83 18.74L101.83 18.74Q100.88 18.53 100.24 18.30Q99.61 18.06 99.15 17.55Q98.70 17.03 98.70 16.16L98.70 16.16Q98.70 15.39 99.12 14.77Q99.54 14.15 100.37 13.79Q101.21 13.43 102.41 13.43L102.41 13.43Q103.24 13.43 104.04 13.62Q104.85 13.80 105.47 14.17L105.47 14.17L104.73 15.93Q103.53 15.28 102.40 15.28L102.40 15.28Q101.69 15.28 101.37 15.49Q101.05 15.70 101.05 16.04L101.05 16.04Q101.05 16.37 101.43 16.54Q101.81 16.71 102.66 16.89L102.66 16.89Q103.63 17.10 104.26 17.33Q104.89 17.56 105.35 18.07Q105.81 18.58 105.81 19.46L105.81 19.46Q105.81 20.21 105.39 20.83Q104.97 21.44 104.13 21.80Q103.29 22.17 102.09 22.17L102.09 22.17Q101.07 22.17 100.11 21.92Q99.15 21.67 98.55 21.24ZM109.96 17.80L109.96 17.80Q109.96 16.55 110.56 15.55Q111.17 14.56 112.23 14.00Q113.29 13.43 114.62 13.43L114.62 13.43Q115.95 13.43 117.02 14.00Q118.08 14.56 118.69 15.55Q119.29 16.55 119.29 17.80L119.29 17.80Q119.29 19.22 118.52 20.30Q117.75 21.39 116.44 21.85L116.44 21.85Q116.68 22.12 116.91 22.23Q117.14 22.33 117.42 22.33L117.42 22.33Q118.13 22.33 118.70 21.75L118.70 21.75L119.73 22.97Q119.31 23.49 118.70 23.76Q118.09 24.03 117.37 24.03L117.37 24.03Q116.67 24.03 116.11 23.85Q115.55 23.67 114.98 23.25Q114.41 22.84 113.70 22.09L113.70 22.09Q112.61 21.91 111.76 21.31Q110.90 20.72 110.43 19.81Q109.96 18.89 109.96 17.80ZM112.36 17.80L112.36 17.80Q112.36 18.51 112.66 19.05Q112.96 19.60 113.47 19.90Q113.99 20.20 114.62 20.20L114.62 20.20Q115.26 20.20 115.78 19.90Q116.29 19.60 116.59 19.05Q116.89 18.51 116.89 17.80L116.89 17.80Q116.89 17.09 116.59 16.54Q116.29 16 115.78 15.70Q115.26 15.40 114.62 15.40L114.62 15.40Q113.98 15.40 113.47 15.70Q112.96 16 112.66 16.54Q112.36 17.09 112.36 17.80ZM130.41 22L124.02 22L124.02 13.60L126.40 13.60L126.40 20.11L130.41 20.11L130.41 22Z" fill="#FFFFFF" x="39"/></svg>